<?xml version="1.0" standalone="no"?>
<!DOCTYPE svg PUBLIC "-//W3C//DTD SVG 20010904//EN"
 "http://www.w3.org/TR/2001/REC-SVG-20010904/DTD/svg10.dtd">
<svg version="1.0" xmlns="http://www.w3.org/2000/svg"
 width="499.000000pt" height="499.000000pt" viewBox="0 0 499.000000 499.000000"
 preserveAspectRatio="xMidYMid meet">

<g transform="translate(0.000000,499.000000) scale(0.100000,-0.100000)"
fill="#000000" stroke="none">
<path d="M2687 4653 c-4 -6 -12 -71 -19 -145 -8 -96 -15 -136 -26 -144 -12 -9
-14 -30 -10 -115 7 -123 27 -184 58 -176 12 3 18 1 14 -5 -4 -6 -2 -13 3 -17
5 -3 22 -37 37 -76 38 -96 86 -183 165 -295 110 -157 107 -159 -15 -10 -85
104 -207 244 -239 274 -25 23 -106 76 -117 76 -5 0 8 -14 27 -32 20 -17 71
-72 113 -122 118 -142 110 -130 90 -123 -10 4 -18 2 -18 -4 0 -6 -37 23 -81
65 -45 42 -134 111 -198 153 -145 96 -140 90 -106 103 18 7 25 14 19 20 -12
12 -229 110 -358 161 -70 29 -107 38 -127 34 -21 -5 -56 6 -135 40 -199 87
-326 126 -549 170 -157 30 -170 30 -85 1 291 -102 339 -121 431 -177 99 -60
189 -126 189 -139 0 -5 -11 -7 -25 -4 -32 6 -32 -5 0 -42 14 -16 25 -32 25
-35 0 -3 -33 -11 -72 -18 -154 -27 -406 -132 -471 -196 -17 -16 -34 -29 -39
-28 -4 2 -7 -1 -5 -6 1 -5 -18 -23 -42 -41 -24 -17 -40 -27 -36 -20 12 19 -98
-62 -132 -99 -18 -18 -30 -38 -27 -42 3 -5 1 -8 -4 -7 -12 4 -74 -61 -112
-117 -65 -95 -139 -258 -154 -335 -5 -27 6 -14 46 58 100 175 224 320 367 427
100 76 237 147 268 139 11 -3 51 4 89 16 109 34 374 68 309 40 -11 -5 -65 -23
-120 -40 -200 -62 -366 -164 -525 -320 -152 -150 -278 -344 -343 -525 -44
-125 -87 -322 -99 -456 -49 -557 203 -1148 642 -1508 138 -112 380 -271 460
-303 8 -3 -28 38 -80 91 -279 283 -532 727 -656 1151 -36 124 -36 126 -40 353
-5 245 4 356 37 454 24 74 44 95 35 37 -3 -22 -8 -95 -12 -164 -5 -100 -3
-136 9 -178 9 -30 26 -106 38 -170 45 -249 154 -509 257 -615 90 -92 216 -169
389 -238 43 -17 197 -66 343 -110 485 -146 623 -209 748 -344 87 -92 123 -204
99 -300 l-8 -30 19 28 c13 20 21 25 25 15 12 -34 126 108 188 235 l41 82 -6
-48 c-24 -198 -291 -415 -684 -557 -134 -49 -120 -50 37 -5 209 60 372 136
561 260 107 71 174 134 231 217 58 85 68 82 21 -6 l-42 -77 46 37 c24 20 54
50 66 66 11 16 23 27 26 24 11 -12 -57 -93 -135 -159 -46 -38 -83 -71 -83 -73
0 -9 180 112 275 185 145 110 329 297 403 409 95 142 158 286 198 450 18 73
31 312 17 312 -6 0 -13 -24 -17 -54 -8 -75 -57 -218 -107 -317 -58 -117 -128
-215 -207 -291 -73 -71 -128 -104 -191 -114 l-41 -7 0 35 c0 100 -46 232 -110
314 -47 59 -142 96 -156 60 -3 -8 14 -43 37 -77 46 -69 83 -154 73 -171 -4 -5
-21 16 -39 49 -45 79 -137 187 -215 250 -74 61 -223 137 -358 184 -51 17 -91
33 -89 35 5 6 205 -44 290 -72 43 -14 81 -24 84 -21 8 9 -88 54 -173 81 -43
13 -141 43 -217 65 -343 102 -593 290 -707 533 -49 106 -69 181 -77 290 -5 78
-4 91 17 130 13 24 26 57 30 73 6 24 8 25 9 8 1 -13 5 -23 9 -23 5 0 8 18 7
40 -1 22 2 40 7 40 4 0 8 4 8 9 0 5 -14 7 -31 4 l-32 -5 8 39 c20 109 155 191
368 224 139 21 338 -3 457 -57 104 -46 147 -115 159 -249 l7 -80 17 35 c12 26
16 30 17 15 0 -41 -44 -109 -85 -132 -44 -25 -127 -30 -200 -13 -22 5 -41 7
-43 5 -2 -2 23 -17 56 -34 49 -25 146 -50 197 -51 6 0 3 -5 -5 -10 -23 -15
-106 -12 -147 5 -50 21 -54 11 -4 -14 58 -30 141 -36 230 -17 130 27 189 82
198 182 6 63 -1 93 -40 189 -33 81 -42 119 -25 109 7 -5 5 4 -5 20 -31 47 -1
25 53 -39 28 -33 59 -81 68 -108 15 -42 21 -49 57 -58 170 -43 242 -90 289
-185 38 -76 60 -165 44 -179 -8 -7 -9 -6 -3 4 6 11 4 13 -9 8 -11 -4 -15 -3
-11 4 4 6 1 9 -6 8 -19 -4 -129 53 -123 63 3 4 -2 5 -10 2 -9 -3 -16 -1 -16 5
0 6 -6 11 -14 11 -7 0 -21 10 -30 23 -9 12 -14 15 -10 7 9 -17 16 -22 -88 59
-36 28 -69 48 -72 43 -3 -5 4 -18 15 -28 37 -33 60 -83 63 -133 2 -41 8 -54
34 -75 34 -30 45 -58 62 -165 19 -113 3 -184 -53 -245 -46 -49 -130 -60 -204
-26 -24 10 -43 15 -43 11 0 -18 76 -85 116 -102 110 -49 211 -30 297 54 42 42
57 65 75 120 12 37 22 76 22 87 0 29 17 33 35 8 54 -78 79 -298 42 -386 l-18
-44 28 20 c16 11 66 56 112 100 93 90 127 108 160 86 16 -12 20 -21 15 -41
l-7 -27 32 24 c81 57 191 224 225 339 18 60 21 168 6 191 -8 13 -10 12 -10 -3
0 -33 -60 -136 -94 -162 -44 -34 -98 -43 -130 -22 -13 9 -34 14 -45 12 -36 -7
-63 48 -58 115 2 30 8 63 12 73 6 14 3 16 -11 11 -11 -3 -15 -2 -9 3 21 16 55
66 55 79 0 10 -5 10 -26 -1 -15 -7 -32 -11 -38 -9 -20 8 -36 90 -45 232 -5 73
-11 135 -14 138 -3 3 -9 -15 -12 -40 -9 -58 -25 -70 -25 -19 0 72 -30 288 -55
390 -14 57 -39 131 -56 165 -30 60 -89 142 -96 134 -2 -2 8 -27 23 -56 38 -76
43 -152 13 -215 -13 -28 -33 -59 -45 -70 -12 -11 -38 -35 -58 -53 -20 -18 -36
-37 -36 -42 0 -24 -19 -7 -25 23 -4 17 -25 72 -46 121 -20 48 -35 95 -32 104
4 8 2 13 -3 9 -6 -3 -16 4 -24 16 -12 20 -12 21 3 8 15 -12 17 -11 17 3 0 16
1 16 16 2 19 -20 21 -20 21 -1 0 8 -2 13 -5 11 -2 -3 -18 14 -36 36 -17 23
-43 50 -58 61 -23 18 -29 18 -45 6 -10 -7 -15 -9 -11 -5 10 12 -11 38 -24 30
-13 -8 -69 46 -61 59 3 6 2 8 -3 5 -10 -6 -35 16 -33 29 0 5 -8 13 -18 18 -10
6 -20 11 -22 12 -2 2 1 8 6 15 12 16 13 48 1 48 -4 0 -8 6 -8 13 0 8 -9 22
-20 32 -32 29 -130 180 -170 263 -21 42 -53 119 -71 169 -19 51 -39 93 -45 93
-20 0 -39 32 -49 84 -6 28 -14 46 -18 39z m-372 -802 c116 -23 194 -46 261
-76 74 -34 108 -61 57 -45 -16 4 -82 24 -147 44 -65 20 -121 35 -123 33 -2 -2
32 -24 74 -49 81 -47 208 -137 201 -143 -1 -2 -41 4 -88 12 -58 10 -115 13
-180 9 -52 -3 -135 -8 -185 -11 l-90 -5 60 14 c33 8 83 19 110 25 46 9 43 10
-37 6 -87 -4 -144 -21 -275 -81 -28 -13 -56 -24 -61 -24 -10 0 -99 -48 -120
-65 -7 -5 -28 -23 -46 -40 -52 -46 -168 -140 -175 -141 -72 -10 -192 -178
-240 -338 -59 -192 -26 -429 92 -666 40 -82 68 -122 126 -183 41 -42 76 -75
79 -73 2 3 -33 63 -78 133 -120 183 -149 255 -165 407 -7 62 1 164 15 186 7
11 14 12 35 2 19 -9 40 -42 82 -129 108 -224 241 -395 415 -534 167 -133 267
-187 666 -354 275 -116 344 -156 443 -256 102 -102 146 -189 161 -322 7 -66 7
-100 0 -113 -10 -18 -11 -18 -17 1 -16 51 -71 155 -105 200 -95 123 -277 212
-575 280 -421 96 -582 157 -776 295 -114 80 -282 239 -347 328 -75 103 -144
220 -137 232 4 6 -18 63 -49 128 -76 163 -82 190 -70 307 10 85 17 107 63 198
29 56 46 95 39 86 -18 -21 -58 -32 -51 -13 3 8 0 14 -7 14 -6 0 -14 -9 -17
-20 -3 -11 -10 -20 -15 -20 -31 0 62 131 172 241 195 196 456 328 740 375 55
10 100 20 100 24 0 4 -11 19 -25 34 -22 24 -23 29 -11 42 8 8 19 14 24 14 6 0
12 5 14 10 4 14 102 -20 163 -56 25 -14 48 -24 51 -21 12 12 -123 87 -180 101
-20 5 -26 10 -18 15 13 8 73 1 167 -18z m550 -271 c3 -5 1 -10 -4 -10 -6 0
-11 5 -11 10 0 6 2 10 4 10 3 0 8 -4 11 -10z m67 -18 c8 -6 18 -9 21 -5 4 3 7
1 7 -6 0 -8 8 -11 20 -8 22 6 45 -25 120 -158 l34 -60 -62 57 c-33 31 -88 75
-121 98 -33 24 -58 47 -55 51 3 5 -5 9 -17 9 -22 0 -22 0 -3 19 21 20 35 21
56 3z m-1989 -1990 c42 -84 51 -108 33 -87 -24 27 -106 182 -106 198 0 26 23
-9 73 -111z"/>
<path d="M1985 3663 c-103 -22 -233 -73 -327 -129 -83 -50 -300 -245 -286
-259 4 -4 28 14 55 40 160 155 386 285 584 335 120 30 101 40 -26 13z"/>
<path d="M1545 2380 c16 -56 119 -289 156 -352 89 -151 287 -272 628 -383 217
-70 295 -94 298 -91 2 1 -48 24 -110 51 -150 64 -360 173 -448 231 -153 103
-326 282 -460 474 -64 92 -73 103 -64 70z"/>
<path d="M3392 4000 c0 -14 2 -19 5 -12 2 6 2 18 0 25 -3 6 -5 1 -5 -13z"/>
<path d="M3408 3975 c-9 -10 24 -85 42 -95 12 -6 17 -5 17 5 0 8 -5 11 -10 8
-6 -4 -8 0 -4 10 3 10 3 17 -1 17 -5 0 -15 14 -23 31 -8 16 -17 27 -21 24z"/>
<path d="M2225 3301 c-73 -21 -133 -52 -159 -80 -15 -16 -6 -14 47 13 92 46
162 60 307 59 127 0 265 -25 333 -60 16 -8 33 -13 39 -11 20 7 -101 58 -184
78 -109 26 -296 27 -383 1z"/>
<path d="M2410 3189 c-246 -43 -400 -283 -346 -538 29 -138 97 -252 218 -367
67 -65 182 -144 246 -171 37 -15 37 -15 -24 49 -222 231 -309 568 -194 752 33
55 126 135 191 166 76 36 180 54 277 48 71 -5 73 -4 55 13 -10 10 -45 25 -78
34 -73 20 -270 28 -345 14z"/>
<path d="M2616 3084 c-111 -27 -254 -126 -269 -187 -5 -18 0 -16 26 14 48 54
109 97 179 127 56 23 77 26 180 27 74 0 117 4 115 10 -9 25 -142 31 -231 9z"/>
<path d="M3212 3008 c2 -6 31 -18 63 -25 32 -7 90 -28 127 -46 37 -18 68 -30
68 -26 0 19 -76 63 -145 85 -83 26 -119 30 -113 12z"/>
<path d="M3145 2810 c-13 -20 -100 -64 -163 -81 -74 -21 -67 -17 -77 -49 -7
-24 -7 -24 12 -8 10 9 51 28 90 41 77 26 127 57 143 88 11 19 6 27 -5 9z"/>
</g>
</svg>
